<svg xmlns="http://www.w3.org/2000/svg" width="1600" height="1000" viewBox="0 0 1600 1000" role="img" aria-labelledby="title desc">
  <title id="title">CRM by Fatek cover placeholder</title>
  <desc id="desc">Editorial dark interface placeholder for CRM by Fatek.</desc>
  <rect width="1600" height="1000" fill="#080A0F"/>
  <path d="M0 170h1600M0 340h1600M0 510h1600M0 680h1600M0 850h1600M200 0v1000M400 0v1000M600 0v1000M800 0v1000M1000 0v1000M1200 0v1000M1400 0v1000" stroke="#252B37" stroke-width="2" opacity=".42"/>
  <rect x="120" y="120" width="1360" height="760" rx="28" fill="#10131A" stroke="#252B37" stroke-width="4"/>
  <rect x="170" y="180" width="360" height="650" rx="18" fill="#161A23"/>
  <rect x="590" y="180" width="840" height="150" rx="18" fill="#161A23"/>
  <rect x="590" y="380" width="250" height="330" rx="18" fill="#161A23"/>
  <rect x="890" y="380" width="250" height="330" rx="18" fill="#161A23"/>
  <rect x="1190" y="380" width="240" height="330" rx="18" fill="#161A23"/>
  <circle cx="235" cy="245" r="22" fill="#22C55E"/>
  <text x="280" y="254" fill="#F7F8FA" font-size="42" font-family="Inter,Arial">CRM by Fatek</text>
  <text x="590" y="270" fill="#60A5FA" font-size="38" font-family="Inter,Arial">Business OS · CRM · ERP · AI</text>
  <text x="590" y="785" fill="#A8AFBD" font-size="32" font-family="Inter,Arial">Replace with production-safe screenshot</text>
</svg>
